<?xml version="1.0" encoding="UTF-8"?>
<svg id="Camada_2" data-name="Camada 2" xmlns="http://www.w3.org/2000/svg" viewBox="0 0 961.49 637.39">
  <defs>
    <style>
      .cls-1 {
        fill: #fff;
      }
    </style>
  </defs>
  <g id="Camada_1-2" data-name="Camada 1">
    <g>
      <g>
        <path class="cls-1" d="M0,449.58V226.06H114.07v220.07c0,69.13,28.8,96.79,76.62,96.79s76.05-27.65,76.05-96.79V226.06h112.34v223.53c0,120.4-70.28,187.81-189.54,187.81S0,569.99,0,449.58Z"/>
        <path class="cls-1" d="M783.48,450.73v178.59h-109.46v-160.73c0-44.94-19.59-63.95-51.27-63.95-35.14,0-62.22,21.89-62.22,73.74v150.94h-109.46V317.08h104.27v33.99c24.77-25.92,59.91-39.18,99.09-39.18,73.16,0,129.05,42.06,129.05,138.84Z"/>
        <path class="cls-1" d="M852.03,226.73c0-32.84,21.7-58.19,54.73-58.19s54.73,23.62,54.73,56.46c0,34.57-21.7,59.91-54.73,59.91s-54.73-25.35-54.73-58.19Zm0,90.35h109.46v312.25h-109.46V317.08Z"/>
      </g>
      <g>
        <g>
          <path class="cls-1" d="M305.78,53.24c-14.52,18.88-33.55,32.1-57.37,32.1h0v40.53c0,9.01,5.18,13.96,12.84,13.96,4.73,0,9.46-1.35,13.06-3.83l10.58,29.95c-7.43,4.73-18.46,6.98-29.72,6.98-31.3,0-49.54-15.31-49.54-46.61v-40.98h-17.79v-31.97h17.79V21.62L248.41,0V53.37"/>
          <path class="cls-1" d="M427.87,109.66c0,36.93-28.6,63.27-68.9,63.27s-68.9-26.35-68.9-63.27,29.05-62.82,68.9-62.82,68.9,26.12,68.9,62.82Zm-88.72-75.43h-28.37l21.74-25.42c4.78-5.59,11.77-8.81,19.13-8.81h14.47c6.9,0,13.45,3.02,17.93,8.26l22.21,25.97h-28.37l-19.36-17.11-19.37,17.11Zm45.49,75.43c0-18.46-11.03-28.82-25.67-28.82s-25.67,10.36-25.67,28.82,11.26,29.27,25.67,29.27,25.67-10.58,25.67-29.27Z"/>
          <path class="cls-1" d="M643.13,101.1v69.8h-42.78v-62.82c0-17.56-7.66-24.99-20.04-24.99-13.74,0-24.32,8.56-24.32,28.82v59h-42.78V48.86h40.76v13.29c9.68-10.13,23.42-15.31,38.73-15.31,28.6,0,50.44,16.44,50.44,54.27Z"/>
          <path class="cls-1" d="M784.31,103.13v67.78h-39.86v-15.76c-6.08,11.71-18.24,17.79-36.03,17.79-29.27,0-45.49-16.44-45.49-37.6,0-22.52,16.44-36.48,54.27-36.48h24.32c-.68-12.38-9.01-19.36-25.9-19.36-11.71,0-24.77,4.05-33.1,10.58l-14.41-29.05c13.96-9.23,34.68-14.19,53.82-14.19,39.63,0,62.37,17.56,62.37,56.29Zm-42.78,28.6v-10.58h-18.46c-13.74,0-18.69,4.95-18.69,12.38s5.85,12.38,15.99,12.38c9.46,0,17.79-4.5,21.17-14.19Z"/>
        </g>
        <path class="cls-1" d="M142.33,85.58l-3.56,25.5h32.3v28.7h-36.44l-4.91,33.15h-35.15l4.91-33.15h-31.79l-4.91,33.15H27.65l4.91-33.15H0v-28.7H36.7l3.5-25.5H3.58l3.73-32.21H43.35l6.79-36.19h35.15l-4.4,36.19h32.56l3.62-36.19h35.15l-4.91,36.2h40.54s0,31.97,0,31.97l-45.51,.23Zm-35.21,0h-31.79l-3.5,25.5h31.79l3.5-25.5Z"/>
      </g>
    </g>
  </g>
</svg>
